<mxfile host="app.diagrams.net" modified="2024-07-03T15:11:49.989Z" agent="Mozilla/5.0 (Windows NT 10.0; Win64; x64) AppleWebKit/537.36 (KHTML, like Gecko) Chrome/126.0.0.0 Safari/537.36 Edg/126.0.0.0" etag="NQs8LF9lheL0VnY-MnKT" version="24.6.4" type="github" pages="7">
  <diagram name="Generale" id="P90tmMBN_VCAZp8_OnAG">
    <mxGraphModel dx="1386" dy="751" grid="1" gridSize="10" guides="1" tooltips="1" connect="1" arrows="1" fold="1" page="1" pageScale="1" pageWidth="850" pageHeight="1100" math="0" shadow="0">
      <root>
        <mxCell id="0" />
        <mxCell id="1" parent="0" />
        <mxCell id="4VHGPsm3MV8m9vBviU2W-12" value="FrontEnd" style="text;html=1;align=center;verticalAlign=middle;whiteSpace=wrap;rounded=0;" vertex="1" parent="1">
          <mxGeometry y="40" width="160" height="40" as="geometry" />
        </mxCell>
        <mxCell id="4VHGPsm3MV8m9vBviU2W-13" value="BackEnd" style="text;html=1;align=center;verticalAlign=middle;whiteSpace=wrap;rounded=0;" vertex="1" parent="1">
          <mxGeometry x="200" y="40" width="160" height="40" as="geometry" />
        </mxCell>
        <mxCell id="4VHGPsm3MV8m9vBviU2W-14" value="Database" style="text;html=1;align=center;verticalAlign=middle;whiteSpace=wrap;rounded=0;" vertex="1" parent="1">
          <mxGeometry x="400" y="40" width="160" height="40" as="geometry" />
        </mxCell>
        <mxCell id="4VHGPsm3MV8m9vBviU2W-16" value="Privacy Policy" style="text;html=1;align=center;verticalAlign=middle;whiteSpace=wrap;rounded=0;" vertex="1" parent="1">
          <mxGeometry y="120" width="160" height="40" as="geometry" />
        </mxCell>
        <mxCell id="4VHGPsm3MV8m9vBviU2W-18" value="Pagina Reels" style="text;html=1;align=center;verticalAlign=middle;whiteSpace=wrap;rounded=0;" vertex="1" parent="1">
          <mxGeometry y="240" width="160" height="40" as="geometry" />
        </mxCell>
        <mxCell id="4VHGPsm3MV8m9vBviU2W-19" value="Pagina Articolo" style="text;html=1;align=center;verticalAlign=middle;whiteSpace=wrap;rounded=0;" vertex="1" parent="1">
          <mxGeometry y="280" width="160" height="40" as="geometry" />
        </mxCell>
        <mxCell id="4VHGPsm3MV8m9vBviU2W-20" value="Coockie Policy" style="text;html=1;align=center;verticalAlign=middle;whiteSpace=wrap;rounded=0;" vertex="1" parent="1">
          <mxGeometry y="160" width="160" height="40" as="geometry" />
        </mxCell>
        <mxCell id="4VHGPsm3MV8m9vBviU2W-21" value="Consenso Informativo" style="text;html=1;align=center;verticalAlign=middle;whiteSpace=wrap;rounded=0;" vertex="1" parent="1">
          <mxGeometry y="200" width="160" height="40" as="geometry" />
        </mxCell>
        <mxCell id="4VHGPsm3MV8m9vBviU2W-22" value="Server" style="text;html=1;align=center;verticalAlign=middle;whiteSpace=wrap;rounded=0;" vertex="1" parent="1">
          <mxGeometry x="600" y="40" width="160" height="40" as="geometry" />
        </mxCell>
        <mxCell id="4VHGPsm3MV8m9vBviU2W-26" value="Get; Articolo" style="text;html=1;align=center;verticalAlign=middle;whiteSpace=wrap;rounded=0;" vertex="1" parent="1">
          <mxGeometry x="200" y="120" width="160" height="40" as="geometry" />
        </mxCell>
        <mxCell id="4VHGPsm3MV8m9vBviU2W-27" value="Post; Richeste Utente" style="text;html=1;align=center;verticalAlign=middle;whiteSpace=wrap;rounded=0;" vertex="1" parent="1">
          <mxGeometry x="200" y="240" width="160" height="40" as="geometry" />
        </mxCell>
        <mxCell id="4VHGPsm3MV8m9vBviU2W-29" value="Get; Video" style="text;html=1;align=center;verticalAlign=middle;whiteSpace=wrap;rounded=0;" vertex="1" parent="1">
          <mxGeometry x="200" y="160" width="160" height="40" as="geometry" />
        </mxCell>
        <mxCell id="4VHGPsm3MV8m9vBviU2W-30" value="Post; Registrazione Utente&amp;nbsp;" style="text;html=1;align=center;verticalAlign=middle;whiteSpace=wrap;rounded=0;" vertex="1" parent="1">
          <mxGeometry x="200" y="200" width="160" height="40" as="geometry" />
        </mxCell>
        <mxCell id="4VHGPsm3MV8m9vBviU2W-31" value="Struttura" style="text;html=1;align=center;verticalAlign=middle;whiteSpace=wrap;rounded=0;" vertex="1" parent="1">
          <mxGeometry x="400" y="120" width="160" height="40" as="geometry" />
        </mxCell>
        <mxCell id="4VHGPsm3MV8m9vBviU2W-34" value="BackEnd Qry" style="text;html=1;align=center;verticalAlign=middle;whiteSpace=wrap;rounded=0;" vertex="1" parent="1">
          <mxGeometry x="400" y="160" width="160" height="40" as="geometry" />
        </mxCell>
        <mxCell id="4VHGPsm3MV8m9vBviU2W-36" value="Struttura" style="text;html=1;align=center;verticalAlign=middle;whiteSpace=wrap;rounded=0;" vertex="1" parent="1">
          <mxGeometry x="600" y="120" width="160" height="40" as="geometry" />
        </mxCell>
        <mxCell id="4VHGPsm3MV8m9vBviU2W-39" value="CRUD" style="text;html=1;align=center;verticalAlign=middle;whiteSpace=wrap;rounded=0;" vertex="1" parent="1">
          <mxGeometry x="600" y="160" width="160" height="40" as="geometry" />
        </mxCell>
        <mxCell id="XdtbKMpEPdvDYdIaRC52-1" value="Crediti" style="text;html=1;align=center;verticalAlign=middle;whiteSpace=wrap;rounded=0;" vertex="1" parent="1">
          <mxGeometry y="320" width="160" height="40" as="geometry" />
        </mxCell>
      </root>
    </mxGraphModel>
  </diagram>
  <diagram id="W94IJjuEhzToaFC0zX5T" name="Sequenza">
    <mxGraphModel dx="2236" dy="751" grid="1" gridSize="10" guides="1" tooltips="1" connect="1" arrows="1" fold="1" page="1" pageScale="1" pageWidth="850" pageHeight="1100" math="0" shadow="0">
      <root>
        <mxCell id="0" />
        <mxCell id="1" parent="0" />
        <mxCell id="6meu6a6uJIn8Wwmucm-6-19" value="Essenziale: Cose che devono essere fatte prima di&amp;nbsp; poter pubblicare il sito&amp;nbsp;" style="text;html=1;align=center;verticalAlign=middle;whiteSpace=wrap;rounded=0;" vertex="1" parent="1">
          <mxGeometry x="1" y="80" width="840" height="40" as="geometry" />
        </mxCell>
        <mxCell id="6meu6a6uJIn8Wwmucm-6-20" value="Buoni Da Fare: migliorano l&#39;user expirence" style="text;html=1;align=center;verticalAlign=middle;whiteSpace=wrap;rounded=0;" vertex="1" parent="1">
          <mxGeometry x="-1" y="280" width="840" height="40" as="geometry" />
        </mxCell>
        <mxCell id="6meu6a6uJIn8Wwmucm-6-26" style="edgeStyle=orthogonalEdgeStyle;rounded=0;orthogonalLoop=1;jettySize=auto;html=1;" edge="1" parent="1" source="6meu6a6uJIn8Wwmucm-6-24" target="6meu6a6uJIn8Wwmucm-6-27">
          <mxGeometry relative="1" as="geometry">
            <mxPoint x="241" y="160" as="targetPoint" />
          </mxGeometry>
        </mxCell>
        <mxCell id="6meu6a6uJIn8Wwmucm-6-24" value="Privacy Policy&lt;div&gt;Coockie Policy&lt;br&gt;&lt;/div&gt;&lt;div&gt;Consenso Informativo&lt;br&gt;TLMK Policy&lt;/div&gt;" style="rounded=0;whiteSpace=wrap;html=1;" vertex="1" parent="1">
          <mxGeometry x="1" y="120" width="120" height="80" as="geometry" />
        </mxCell>
        <mxCell id="6meu6a6uJIn8Wwmucm-6-29" value="" style="edgeStyle=orthogonalEdgeStyle;rounded=0;orthogonalLoop=1;jettySize=auto;html=1;" edge="1" parent="1" source="6meu6a6uJIn8Wwmucm-6-27" target="6meu6a6uJIn8Wwmucm-6-28">
          <mxGeometry relative="1" as="geometry" />
        </mxCell>
        <mxCell id="6meu6a6uJIn8Wwmucm-6-27" value="Struttura DB" style="rounded=0;whiteSpace=wrap;html=1;" vertex="1" parent="1">
          <mxGeometry x="161" y="120" width="120" height="80" as="geometry" />
        </mxCell>
        <mxCell id="6meu6a6uJIn8Wwmucm-6-30" style="edgeStyle=orthogonalEdgeStyle;rounded=0;orthogonalLoop=1;jettySize=auto;html=1;" edge="1" parent="1" source="6meu6a6uJIn8Wwmucm-6-28" target="6meu6a6uJIn8Wwmucm-6-31">
          <mxGeometry relative="1" as="geometry">
            <mxPoint x="641" y="160" as="targetPoint" />
          </mxGeometry>
        </mxCell>
        <mxCell id="6meu6a6uJIn8Wwmucm-6-28" value="Pagina Articolo" style="rounded=0;whiteSpace=wrap;html=1;" vertex="1" parent="1">
          <mxGeometry x="321" y="120" width="120" height="80" as="geometry" />
        </mxCell>
        <mxCell id="6meu6a6uJIn8Wwmucm-6-48" value="" style="edgeStyle=orthogonalEdgeStyle;rounded=0;orthogonalLoop=1;jettySize=auto;html=1;" edge="1" parent="1" source="6meu6a6uJIn8Wwmucm-6-31" target="6meu6a6uJIn8Wwmucm-6-47">
          <mxGeometry relative="1" as="geometry">
            <Array as="points">
              <mxPoint x="621" y="160" />
              <mxPoint x="621" y="160" />
            </Array>
          </mxGeometry>
        </mxCell>
        <mxCell id="6meu6a6uJIn8Wwmucm-6-31" value="Get; Articolo&lt;br&gt;Post; Registrazione Utente&amp;nbsp;" style="rounded=0;whiteSpace=wrap;html=1;" vertex="1" parent="1">
          <mxGeometry x="481" y="120" width="120" height="80" as="geometry" />
        </mxCell>
        <mxCell id="6meu6a6uJIn8Wwmucm-6-36" value="" style="edgeStyle=orthogonalEdgeStyle;rounded=0;orthogonalLoop=1;jettySize=auto;html=1;" edge="1" parent="1" source="6meu6a6uJIn8Wwmucm-6-32" target="6meu6a6uJIn8Wwmucm-6-33">
          <mxGeometry relative="1" as="geometry" />
        </mxCell>
        <mxCell id="6meu6a6uJIn8Wwmucm-6-32" value="&lt;div&gt;Get; Video&lt;br&gt;&lt;/div&gt;" style="rounded=0;whiteSpace=wrap;html=1;" vertex="1" parent="1">
          <mxGeometry x="-1" y="320" width="160" height="80" as="geometry" />
        </mxCell>
        <mxCell id="6meu6a6uJIn8Wwmucm-6-37" value="" style="edgeStyle=orthogonalEdgeStyle;rounded=0;orthogonalLoop=1;jettySize=auto;html=1;" edge="1" parent="1" source="6meu6a6uJIn8Wwmucm-6-33" target="6meu6a6uJIn8Wwmucm-6-34">
          <mxGeometry relative="1" as="geometry" />
        </mxCell>
        <mxCell id="6meu6a6uJIn8Wwmucm-6-33" value="Pagina Reels" style="rounded=0;whiteSpace=wrap;html=1;" vertex="1" parent="1">
          <mxGeometry x="199" y="320" width="160" height="80" as="geometry" />
        </mxCell>
        <mxCell id="6meu6a6uJIn8Wwmucm-6-34" value="Post; Richeste Utente" style="rounded=0;whiteSpace=wrap;html=1;" vertex="1" parent="1">
          <mxGeometry x="399" y="320" width="160" height="80" as="geometry" />
        </mxCell>
        <mxCell id="6meu6a6uJIn8Wwmucm-6-39" value="Ottimizzazione: Permettono di gestire in maniera più spedita il server" style="text;html=1;align=center;verticalAlign=middle;whiteSpace=wrap;rounded=0;" vertex="1" parent="1">
          <mxGeometry x="-1" y="480" width="840" height="30" as="geometry" />
        </mxCell>
        <mxCell id="6meu6a6uJIn8Wwmucm-6-41" value="&lt;div&gt;BackEnd Qry(trigger, viste, ecc.ecc)&lt;br&gt;&lt;/div&gt;" style="rounded=0;whiteSpace=wrap;html=1;" vertex="1" parent="1">
          <mxGeometry x="-1" y="520" width="160" height="80" as="geometry" />
        </mxCell>
        <mxCell id="6meu6a6uJIn8Wwmucm-6-43" value="Auto CRUD(Ms Services)" style="rounded=0;whiteSpace=wrap;html=1;" vertex="1" parent="1">
          <mxGeometry x="199" y="520" width="160" height="80" as="geometry" />
        </mxCell>
        <mxCell id="6meu6a6uJIn8Wwmucm-6-47" value="&lt;span style=&quot;color: rgb(0, 0, 0); font-family: Helvetica; font-size: 12px; font-style: normal; font-variant-ligatures: normal; font-variant-caps: normal; font-weight: 400; letter-spacing: normal; orphans: 2; text-align: center; text-indent: 0px; text-transform: none; widows: 2; word-spacing: 0px; -webkit-text-stroke-width: 0px; white-space: normal; background-color: rgb(251, 251, 251); text-decoration-thickness: initial; text-decoration-style: initial; text-decoration-color: initial; display: inline !important; float: none;&quot;&gt;Struttura Server&lt;/span&gt;" style="whiteSpace=wrap;html=1;rounded=0;" vertex="1" parent="1">
          <mxGeometry x="641" y="120" width="120" height="80" as="geometry" />
        </mxCell>
        <mxCell id="6meu6a6uJIn8Wwmucm-6-49" value="6/12" style="text;html=1;align=center;verticalAlign=middle;whiteSpace=wrap;rounded=0;" vertex="1" parent="1">
          <mxGeometry x="1" y="200" width="120" height="40" as="geometry" />
        </mxCell>
        <mxCell id="6meu6a6uJIn8Wwmucm-6-50" value="12/16" style="text;html=1;align=center;verticalAlign=middle;whiteSpace=wrap;rounded=0;" vertex="1" parent="1">
          <mxGeometry x="161" y="200" width="120" height="40" as="geometry" />
        </mxCell>
        <mxCell id="6meu6a6uJIn8Wwmucm-6-51" value="3" style="text;html=1;align=center;verticalAlign=middle;whiteSpace=wrap;rounded=0;" vertex="1" parent="1">
          <mxGeometry x="321" y="200" width="120" height="40" as="geometry" />
        </mxCell>
        <mxCell id="6meu6a6uJIn8Wwmucm-6-52" value="16/24" style="text;html=1;align=center;verticalAlign=middle;whiteSpace=wrap;rounded=0;" vertex="1" parent="1">
          <mxGeometry x="481" y="200" width="120" height="40" as="geometry" />
        </mxCell>
        <mxCell id="6meu6a6uJIn8Wwmucm-6-53" value="6" style="text;html=1;align=center;verticalAlign=middle;whiteSpace=wrap;rounded=0;" vertex="1" parent="1">
          <mxGeometry x="641" y="200" width="120" height="40" as="geometry" />
        </mxCell>
        <mxCell id="6meu6a6uJIn8Wwmucm-6-54" value="6/8" style="text;html=1;align=center;verticalAlign=middle;whiteSpace=wrap;rounded=0;" vertex="1" parent="1">
          <mxGeometry x="-1" y="400" width="160" height="40" as="geometry" />
        </mxCell>
        <mxCell id="6meu6a6uJIn8Wwmucm-6-55" value="6" style="text;html=1;align=center;verticalAlign=middle;whiteSpace=wrap;rounded=0;" vertex="1" parent="1">
          <mxGeometry x="199" y="400" width="160" height="40" as="geometry" />
        </mxCell>
        <mxCell id="6meu6a6uJIn8Wwmucm-6-56" value="Consideriamo un 25% di tempo extra per precauzione" style="text;html=1;align=center;verticalAlign=middle;whiteSpace=wrap;rounded=0;" vertex="1" parent="1">
          <mxGeometry width="840" height="40" as="geometry" />
        </mxCell>
        <mxCell id="6meu6a6uJIn8Wwmucm-6-57" value="1/2" style="text;html=1;align=center;verticalAlign=middle;whiteSpace=wrap;rounded=0;" vertex="1" parent="1">
          <mxGeometry x="399" y="400" width="160" height="40" as="geometry" />
        </mxCell>
        <mxCell id="YBQu0AmobadGtNJZ_Jpy-1" value="?" style="text;html=1;align=center;verticalAlign=middle;whiteSpace=wrap;rounded=0;" vertex="1" parent="1">
          <mxGeometry x="-1" y="600" width="160" height="40" as="geometry" />
        </mxCell>
        <mxCell id="YBQu0AmobadGtNJZ_Jpy-2" value="?" style="text;html=1;align=center;verticalAlign=middle;whiteSpace=wrap;rounded=0;" vertex="1" parent="1">
          <mxGeometry x="199" y="600" width="160" height="40" as="geometry" />
        </mxCell>
        <mxCell id="YBQu0AmobadGtNJZ_Jpy-3" value="&lt;font style=&quot;font-size: 20px;&quot;&gt;44/76&lt;/font&gt;" style="text;html=1;align=center;verticalAlign=middle;whiteSpace=wrap;rounded=0;" vertex="1" parent="1">
          <mxGeometry x="760" y="200" width="81" height="40" as="geometry" />
        </mxCell>
        <mxCell id="YBQu0AmobadGtNJZ_Jpy-4" value="&lt;font style=&quot;font-size: 20px;&quot;&gt;17/20&lt;/font&gt;" style="text;html=1;align=center;verticalAlign=middle;whiteSpace=wrap;rounded=0;" vertex="1" parent="1">
          <mxGeometry x="601" y="400" width="79" height="40" as="geometry" />
        </mxCell>
        <mxCell id="uN5XaSwNEwTCXN41pctV-1" value="Google OAuth" style="text;html=1;align=center;verticalAlign=middle;whiteSpace=wrap;rounded=0;" vertex="1" parent="1">
          <mxGeometry x="-160" y="120" width="120" height="80" as="geometry" />
        </mxCell>
        <mxCell id="uN5XaSwNEwTCXN41pctV-2" value="4/6" style="text;html=1;align=center;verticalAlign=middle;whiteSpace=wrap;rounded=0;" vertex="1" parent="1">
          <mxGeometry x="-160" y="200" width="120" height="40" as="geometry" />
        </mxCell>
        <mxCell id="uN5XaSwNEwTCXN41pctV-3" value="Google Analitics" style="rounded=0;whiteSpace=wrap;html=1;" vertex="1" parent="1">
          <mxGeometry x="399" y="520" width="160" height="80" as="geometry" />
        </mxCell>
        <mxCell id="uN5XaSwNEwTCXN41pctV-4" value="?" style="text;html=1;align=center;verticalAlign=middle;whiteSpace=wrap;rounded=0;" vertex="1" parent="1">
          <mxGeometry x="399" y="600" width="160" height="40" as="geometry" />
        </mxCell>
        <mxCell id="uN5XaSwNEwTCXN41pctV-5" value="Social Integration" style="rounded=0;whiteSpace=wrap;html=1;" vertex="1" parent="1">
          <mxGeometry x="399" y="640" width="160" height="80" as="geometry" />
        </mxCell>
        <mxCell id="uN5XaSwNEwTCXN41pctV-6" value="?" style="text;html=1;align=center;verticalAlign=middle;whiteSpace=wrap;rounded=0;" vertex="1" parent="1">
          <mxGeometry x="399" y="720" width="160" height="40" as="geometry" />
        </mxCell>
        <mxCell id="uN5XaSwNEwTCXN41pctV-9" value="&lt;div&gt;App Android&lt;br&gt;&lt;/div&gt;" style="rounded=0;whiteSpace=wrap;html=1;" vertex="1" parent="1">
          <mxGeometry x="-1" y="640" width="160" height="80" as="geometry" />
        </mxCell>
        <mxCell id="uN5XaSwNEwTCXN41pctV-10" value="?" style="text;html=1;align=center;verticalAlign=middle;whiteSpace=wrap;rounded=0;" vertex="1" parent="1">
          <mxGeometry x="-1" y="720" width="160" height="40" as="geometry" />
        </mxCell>
        <mxCell id="uN5XaSwNEwTCXN41pctV-11" value="&lt;div&gt;App Ios&lt;br&gt;&lt;/div&gt;" style="rounded=0;whiteSpace=wrap;html=1;" vertex="1" parent="1">
          <mxGeometry x="199" y="640" width="160" height="80" as="geometry" />
        </mxCell>
        <mxCell id="uN5XaSwNEwTCXN41pctV-12" value="?" style="text;html=1;align=center;verticalAlign=middle;whiteSpace=wrap;rounded=0;" vertex="1" parent="1">
          <mxGeometry x="199" y="720" width="160" height="40" as="geometry" />
        </mxCell>
        <mxCell id="uN5XaSwNEwTCXN41pctV-13" value="Al momento è difficile fare una stima dato che a parte i primi due punti il resto sarebbero argomenti nuovi" style="text;html=1;align=center;verticalAlign=middle;whiteSpace=wrap;rounded=0;" vertex="1" parent="1">
          <mxGeometry x="601" y="520" width="199" height="200" as="geometry" />
        </mxCell>
      </root>
    </mxGraphModel>
  </diagram>
  <diagram id="JUTpg7DhxLLqb8HRAaMn" name="Frontend">
    <mxGraphModel dx="956" dy="518" grid="1" gridSize="10" guides="1" tooltips="1" connect="1" arrows="1" fold="1" page="1" pageScale="1" pageWidth="850" pageHeight="1100" math="0" shadow="0">
      <root>
        <mxCell id="0" />
        <mxCell id="1" parent="0" />
        <mxCell id="8MBCiqwNx6ab9xNwPaNm-8" style="edgeStyle=orthogonalEdgeStyle;rounded=0;orthogonalLoop=1;jettySize=auto;html=1;entryX=0;entryY=0.5;entryDx=0;entryDy=0;" edge="1" parent="1" source="8MBCiqwNx6ab9xNwPaNm-1" target="8MBCiqwNx6ab9xNwPaNm-7">
          <mxGeometry relative="1" as="geometry" />
        </mxCell>
        <mxCell id="8MBCiqwNx6ab9xNwPaNm-1" value="Privacy Policy" style="text;html=1;align=center;verticalAlign=middle;whiteSpace=wrap;rounded=0;" vertex="1" parent="1">
          <mxGeometry y="40" width="160" height="40" as="geometry" />
        </mxCell>
        <mxCell id="8MBCiqwNx6ab9xNwPaNm-34" style="edgeStyle=orthogonalEdgeStyle;rounded=0;orthogonalLoop=1;jettySize=auto;html=1;entryX=0;entryY=0.5;entryDx=0;entryDy=0;" edge="1" parent="1" source="8MBCiqwNx6ab9xNwPaNm-2" target="8MBCiqwNx6ab9xNwPaNm-30">
          <mxGeometry relative="1" as="geometry" />
        </mxCell>
        <mxCell id="8MBCiqwNx6ab9xNwPaNm-2" value="Pagina Reels" style="text;html=1;align=center;verticalAlign=middle;whiteSpace=wrap;rounded=0;" vertex="1" parent="1">
          <mxGeometry y="400" width="160" height="40" as="geometry" />
        </mxCell>
        <mxCell id="8MBCiqwNx6ab9xNwPaNm-36" style="edgeStyle=orthogonalEdgeStyle;rounded=0;orthogonalLoop=1;jettySize=auto;html=1;" edge="1" parent="1" source="8MBCiqwNx6ab9xNwPaNm-3">
          <mxGeometry relative="1" as="geometry">
            <mxPoint x="320" y="500" as="targetPoint" />
          </mxGeometry>
        </mxCell>
        <mxCell id="8MBCiqwNx6ab9xNwPaNm-3" value="Pagina Articolo" style="text;html=1;align=center;verticalAlign=middle;whiteSpace=wrap;rounded=0;" vertex="1" parent="1">
          <mxGeometry y="480" width="160" height="40" as="geometry" />
        </mxCell>
        <mxCell id="8MBCiqwNx6ab9xNwPaNm-9" style="edgeStyle=orthogonalEdgeStyle;rounded=0;orthogonalLoop=1;jettySize=auto;html=1;" edge="1" parent="1" source="8MBCiqwNx6ab9xNwPaNm-4" target="8MBCiqwNx6ab9xNwPaNm-7">
          <mxGeometry relative="1" as="geometry" />
        </mxCell>
        <mxCell id="8MBCiqwNx6ab9xNwPaNm-4" value="Coockie Policy" style="text;html=1;align=center;verticalAlign=middle;whiteSpace=wrap;rounded=0;" vertex="1" parent="1">
          <mxGeometry y="80" width="160" height="40" as="geometry" />
        </mxCell>
        <mxCell id="8MBCiqwNx6ab9xNwPaNm-10" style="edgeStyle=orthogonalEdgeStyle;rounded=0;orthogonalLoop=1;jettySize=auto;html=1;entryX=0;entryY=0.5;entryDx=0;entryDy=0;" edge="1" parent="1" source="8MBCiqwNx6ab9xNwPaNm-5" target="8MBCiqwNx6ab9xNwPaNm-7">
          <mxGeometry relative="1" as="geometry" />
        </mxCell>
        <mxCell id="8MBCiqwNx6ab9xNwPaNm-5" value="Consenso Informativo" style="text;html=1;align=center;verticalAlign=middle;whiteSpace=wrap;rounded=0;" vertex="1" parent="1">
          <mxGeometry y="120" width="160" height="40" as="geometry" />
        </mxCell>
        <mxCell id="8MBCiqwNx6ab9xNwPaNm-6" value="Crediti" style="text;html=1;align=center;verticalAlign=middle;whiteSpace=wrap;rounded=0;" vertex="1" parent="1">
          <mxGeometry y="560" width="160" height="40" as="geometry" />
        </mxCell>
        <mxCell id="8MBCiqwNx6ab9xNwPaNm-7" value="Layout" style="rounded=0;whiteSpace=wrap;html=1;" vertex="1" parent="1">
          <mxGeometry x="320" y="70" width="120" height="60" as="geometry" />
        </mxCell>
        <mxCell id="8MBCiqwNx6ab9xNwPaNm-21" style="edgeStyle=orthogonalEdgeStyle;rounded=0;orthogonalLoop=1;jettySize=auto;html=1;" edge="1" parent="1" source="8MBCiqwNx6ab9xNwPaNm-12" target="8MBCiqwNx6ab9xNwPaNm-18">
          <mxGeometry relative="1" as="geometry" />
        </mxCell>
        <mxCell id="8MBCiqwNx6ab9xNwPaNm-12" value="Privacy Policy" style="text;html=1;align=center;verticalAlign=middle;whiteSpace=wrap;rounded=0;" vertex="1" parent="1">
          <mxGeometry y="200" width="160" height="40" as="geometry" />
        </mxCell>
        <mxCell id="8MBCiqwNx6ab9xNwPaNm-22" style="edgeStyle=orthogonalEdgeStyle;rounded=0;orthogonalLoop=1;jettySize=auto;html=1;" edge="1" parent="1" source="8MBCiqwNx6ab9xNwPaNm-14" target="8MBCiqwNx6ab9xNwPaNm-19">
          <mxGeometry relative="1" as="geometry" />
        </mxCell>
        <mxCell id="8MBCiqwNx6ab9xNwPaNm-14" value="Coockie Policy" style="text;html=1;align=center;verticalAlign=middle;whiteSpace=wrap;rounded=0;" vertex="1" parent="1">
          <mxGeometry y="240" width="160" height="40" as="geometry" />
        </mxCell>
        <mxCell id="8MBCiqwNx6ab9xNwPaNm-23" style="edgeStyle=orthogonalEdgeStyle;rounded=0;orthogonalLoop=1;jettySize=auto;html=1;entryX=0;entryY=0.5;entryDx=0;entryDy=0;" edge="1" parent="1" source="8MBCiqwNx6ab9xNwPaNm-16" target="8MBCiqwNx6ab9xNwPaNm-20">
          <mxGeometry relative="1" as="geometry" />
        </mxCell>
        <mxCell id="8MBCiqwNx6ab9xNwPaNm-16" value="Consenso Informativo" style="text;html=1;align=center;verticalAlign=middle;whiteSpace=wrap;rounded=0;" vertex="1" parent="1">
          <mxGeometry y="280" width="160" height="40" as="geometry" />
        </mxCell>
        <mxCell id="8MBCiqwNx6ab9xNwPaNm-18" value="Layout" style="rounded=0;whiteSpace=wrap;html=1;" vertex="1" parent="1">
          <mxGeometry x="320" y="200" width="125" height="40" as="geometry" />
        </mxCell>
        <mxCell id="8MBCiqwNx6ab9xNwPaNm-19" value="Layout" style="rounded=0;whiteSpace=wrap;html=1;" vertex="1" parent="1">
          <mxGeometry x="320" y="240" width="125" height="40" as="geometry" />
        </mxCell>
        <mxCell id="8MBCiqwNx6ab9xNwPaNm-20" value="Layout" style="rounded=0;whiteSpace=wrap;html=1;" vertex="1" parent="1">
          <mxGeometry x="320" y="280" width="125" height="40" as="geometry" />
        </mxCell>
        <mxCell id="8MBCiqwNx6ab9xNwPaNm-26" value="6-9" style="text;html=1;align=center;verticalAlign=middle;whiteSpace=wrap;rounded=0;" vertex="1" parent="1">
          <mxGeometry x="480" y="80" width="200" height="40" as="geometry" />
        </mxCell>
        <mxCell id="8MBCiqwNx6ab9xNwPaNm-27" value="3" style="text;html=1;align=center;verticalAlign=middle;whiteSpace=wrap;rounded=0;" vertex="1" parent="1">
          <mxGeometry x="480" y="200" width="200" height="40" as="geometry" />
        </mxCell>
        <mxCell id="8MBCiqwNx6ab9xNwPaNm-28" value="3" style="text;html=1;align=center;verticalAlign=middle;whiteSpace=wrap;rounded=0;" vertex="1" parent="1">
          <mxGeometry x="480" y="240" width="200" height="40" as="geometry" />
        </mxCell>
        <mxCell id="8MBCiqwNx6ab9xNwPaNm-29" value="3" style="text;html=1;align=center;verticalAlign=middle;whiteSpace=wrap;rounded=0;" vertex="1" parent="1">
          <mxGeometry x="480" y="280" width="200" height="40" as="geometry" />
        </mxCell>
        <mxCell id="8MBCiqwNx6ab9xNwPaNm-30" value="Layout" style="rounded=0;whiteSpace=wrap;html=1;" vertex="1" parent="1">
          <mxGeometry x="320" y="400" width="125" height="40" as="geometry" />
        </mxCell>
        <mxCell id="8MBCiqwNx6ab9xNwPaNm-33" value="Tempo(H)" style="text;html=1;align=center;verticalAlign=middle;whiteSpace=wrap;rounded=0;" vertex="1" parent="1">
          <mxGeometry x="520" width="120" height="30" as="geometry" />
        </mxCell>
        <mxCell id="8MBCiqwNx6ab9xNwPaNm-35" value="5-6" style="text;html=1;align=center;verticalAlign=middle;whiteSpace=wrap;rounded=0;" vertex="1" parent="1">
          <mxGeometry x="480" y="400" width="200" height="40" as="geometry" />
        </mxCell>
        <mxCell id="8MBCiqwNx6ab9xNwPaNm-37" value="Layout" style="rounded=0;whiteSpace=wrap;html=1;" vertex="1" parent="1">
          <mxGeometry x="320" y="480" width="125" height="40" as="geometry" />
        </mxCell>
        <mxCell id="8MBCiqwNx6ab9xNwPaNm-38" value="3-4" style="text;html=1;align=center;verticalAlign=middle;whiteSpace=wrap;rounded=0;" vertex="1" parent="1">
          <mxGeometry x="480" y="480" width="200" height="40" as="geometry" />
        </mxCell>
        <mxCell id="8MBCiqwNx6ab9xNwPaNm-39" style="edgeStyle=orthogonalEdgeStyle;rounded=0;orthogonalLoop=1;jettySize=auto;html=1;" edge="1" parent="1">
          <mxGeometry relative="1" as="geometry">
            <mxPoint x="320" y="580" as="targetPoint" />
            <mxPoint x="160" y="580" as="sourcePoint" />
          </mxGeometry>
        </mxCell>
        <mxCell id="8MBCiqwNx6ab9xNwPaNm-40" value="Layout" style="rounded=0;whiteSpace=wrap;html=1;" vertex="1" parent="1">
          <mxGeometry x="320" y="560" width="125" height="40" as="geometry" />
        </mxCell>
        <mxCell id="8MBCiqwNx6ab9xNwPaNm-41" value="1-2" style="text;html=1;align=center;verticalAlign=middle;whiteSpace=wrap;rounded=0;" vertex="1" parent="1">
          <mxGeometry x="480" y="560" width="200" height="40" as="geometry" />
        </mxCell>
      </root>
    </mxGraphModel>
  </diagram>
  <diagram id="5Mviu4PQ7aOSsJIZmNEK" name="Backend">
    <mxGraphModel dx="1386" dy="751" grid="1" gridSize="10" guides="1" tooltips="1" connect="1" arrows="1" fold="1" page="1" pageScale="1" pageWidth="850" pageHeight="1100" math="0" shadow="0">
      <root>
        <mxCell id="0" />
        <mxCell id="1" parent="0" />
      </root>
    </mxGraphModel>
  </diagram>
  <diagram id="ND7tRnNhdXu-ZiFtR4Z_" name="Database">
    <mxGraphModel dx="1386" dy="751" grid="1" gridSize="10" guides="1" tooltips="1" connect="1" arrows="1" fold="1" page="1" pageScale="1" pageWidth="850" pageHeight="1100" math="0" shadow="0">
      <root>
        <mxCell id="0" />
        <mxCell id="1" parent="0" />
        <mxCell id="ZTJcYybb4immnc4SCetG-1" value="Articoli" style="swimlane;fontStyle=0;childLayout=stackLayout;horizontal=1;startSize=30;horizontalStack=0;resizeParent=1;resizeParentMax=0;resizeLast=0;collapsible=1;marginBottom=0;whiteSpace=wrap;html=1;" vertex="1" parent="1">
          <mxGeometry x="200" y="40" width="160" height="120" as="geometry" />
        </mxCell>
        <mxCell id="ZTJcYybb4immnc4SCetG-2" value="Oid" style="text;strokeColor=none;fillColor=none;align=left;verticalAlign=middle;spacingLeft=4;spacingRight=4;overflow=hidden;points=[[0,0.5],[1,0.5]];portConstraint=eastwest;rotatable=0;whiteSpace=wrap;html=1;" vertex="1" parent="ZTJcYybb4immnc4SCetG-1">
          <mxGeometry y="30" width="160" height="30" as="geometry" />
        </mxCell>
        <mxCell id="ZTJcYybb4immnc4SCetG-3" value="Id_Articolo" style="text;strokeColor=none;fillColor=none;align=left;verticalAlign=middle;spacingLeft=4;spacingRight=4;overflow=hidden;points=[[0,0.5],[1,0.5]];portConstraint=eastwest;rotatable=0;whiteSpace=wrap;html=1;" vertex="1" parent="ZTJcYybb4immnc4SCetG-1">
          <mxGeometry y="60" width="160" height="30" as="geometry" />
        </mxCell>
        <mxCell id="ZTJcYybb4immnc4SCetG-4" value="Oid_Autore" style="text;strokeColor=none;fillColor=none;align=left;verticalAlign=middle;spacingLeft=4;spacingRight=4;overflow=hidden;points=[[0,0.5],[1,0.5]];portConstraint=eastwest;rotatable=0;whiteSpace=wrap;html=1;" vertex="1" parent="ZTJcYybb4immnc4SCetG-1">
          <mxGeometry y="90" width="160" height="30" as="geometry" />
        </mxCell>
        <mxCell id="ZTJcYybb4immnc4SCetG-6" value="Argomenti" style="swimlane;fontStyle=0;childLayout=stackLayout;horizontal=1;startSize=30;horizontalStack=0;resizeParent=1;resizeParentMax=0;resizeLast=0;collapsible=1;marginBottom=0;whiteSpace=wrap;html=1;" vertex="1" parent="1">
          <mxGeometry y="40" width="160" height="90" as="geometry" />
        </mxCell>
        <mxCell id="ZTJcYybb4immnc4SCetG-7" value="Oid" style="text;strokeColor=none;fillColor=none;align=left;verticalAlign=middle;spacingLeft=4;spacingRight=4;overflow=hidden;points=[[0,0.5],[1,0.5]];portConstraint=eastwest;rotatable=0;whiteSpace=wrap;html=1;" vertex="1" parent="ZTJcYybb4immnc4SCetG-6">
          <mxGeometry y="30" width="160" height="30" as="geometry" />
        </mxCell>
        <mxCell id="ZTJcYybb4immnc4SCetG-8" value="Id_Argomento" style="text;strokeColor=none;fillColor=none;align=left;verticalAlign=middle;spacingLeft=4;spacingRight=4;overflow=hidden;points=[[0,0.5],[1,0.5]];portConstraint=eastwest;rotatable=0;whiteSpace=wrap;html=1;" vertex="1" parent="ZTJcYybb4immnc4SCetG-6">
          <mxGeometry y="60" width="160" height="30" as="geometry" />
        </mxCell>
      </root>
    </mxGraphModel>
  </diagram>
  <diagram id="bTpkkxmQgdQ1vHkuDdpa" name="Server">
    <mxGraphModel dx="1386" dy="751" grid="1" gridSize="10" guides="1" tooltips="1" connect="1" arrows="1" fold="1" page="1" pageScale="1" pageWidth="850" pageHeight="1100" math="0" shadow="0">
      <root>
        <mxCell id="0" />
        <mxCell id="1" parent="0" />
      </root>
    </mxGraphModel>
  </diagram>
  <diagram id="WgvT2-wh6Uerim9HoAgE" name="Articolo">
    <mxGraphModel dx="1386" dy="1851" grid="1" gridSize="10" guides="1" tooltips="1" connect="1" arrows="1" fold="1" page="1" pageScale="1" pageWidth="850" pageHeight="1100" math="0" shadow="0">
      <root>
        <mxCell id="0" />
        <mxCell id="1" parent="0" />
        <mxCell id="wbtcvrtyLnOfZq_-I3_w-1" value="Titolo" style="text;html=1;align=center;verticalAlign=middle;whiteSpace=wrap;rounded=0;" vertex="1" parent="1">
          <mxGeometry x="90" y="-1040" width="60" height="30" as="geometry" />
        </mxCell>
        <mxCell id="wbtcvrtyLnOfZq_-I3_w-2" value="Immagine" style="text;html=1;align=center;verticalAlign=middle;whiteSpace=wrap;rounded=0;" vertex="1" parent="1">
          <mxGeometry x="90" y="-1010" width="60" height="30" as="geometry" />
        </mxCell>
      </root>
    </mxGraphModel>
  </diagram>
</mxfile>
